<svg width="24" height="24" viewBox="0 0 24 24" fill="none" xmlns="http://www.w3.org/2000/svg">
<g filter="url(#filter0_i_590_4211)">
<rect width="24" height="24" rx="4" fill="white"/>
</g>
<rect x="0.25" y="0.25" width="23.5" height="23.5" rx="3.75" stroke="white" stroke-width="0.5"/>
<path d="M20.8961 5.78469L18.5201 4.09373C18.4465 4.03905 18.3556 4 18.2517 4C18.1479 4 18.0527 4.03905 17.9791 4.09763L9.33614 14.1185C9.33614 14.1185 5.93869 11.17 5.84347 11.0841C5.74826 10.9982 5.62275 10.8537 5.43232 10.8537C5.24189 10.8537 5.15533 10.9747 5.05578 11.0646C4.98221 11.1349 3.77038 12.283 3.17312 12.8532C3.13849 12.8883 3.11686 12.9078 3.08656 12.9352C3.03462 13.0016 3 13.0758 3 13.1578C3 13.2437 3.03462 13.314 3.08656 13.3804L3.20774 13.4819C3.20774 13.4819 9.2366 18.7071 9.33614 18.7969C9.43568 18.8867 9.55686 19 9.73431 19C9.90743 19 10.0503 18.8321 10.1325 18.7579L20.9134 6.26113C20.9654 6.19474 21 6.12054 21 6.03463C21 5.937 20.9567 5.85499 20.8961 5.78469V5.78469Z" fill="#54D07E"/>
<defs>
<filter id="filter0_i_590_4211" x="0" y="0" width="24" height="27" filterUnits="userSpaceOnUse" color-interpolation-filters="sRGB">
<feFlood flood-opacity="0" result="BackgroundImageFix"/>
<feBlend mode="normal" in="SourceGraphic" in2="BackgroundImageFix" result="shape"/>
<feColorMatrix in="SourceAlpha" type="matrix" values="0 0 0 0 0 0 0 0 0 0 0 0 0 0 0 0 0 0 127 0" result="hardAlpha"/>
<feOffset dy="3"/>
<feGaussianBlur stdDeviation="1.5"/>
<feComposite in2="hardAlpha" operator="arithmetic" k2="-1" k3="1"/>
<feColorMatrix type="matrix" values="0 0 0 0 0.829427 0 0 0 0 0.829427 0 0 0 0 0.829427 0 0 0 0.25 0"/>
<feBlend mode="normal" in2="shape" result="effect1_innerShadow_590_4211"/>
</filter>
</defs>
</svg>

