<svg width="22" height="19" viewBox="0 0 22 19" fill="none" xmlns="http://www.w3.org/2000/svg">
<path d="M21.873 2.26061L18.969 0.118719C18.8791 0.0494664 18.768 0 18.641 0C18.5141 0 18.3977 0.0494663 18.3078 0.123666L7.74417 12.8167C7.74417 12.8167 3.59173 9.08201 3.47535 8.97318C3.35898 8.86436 3.20558 8.68133 2.97283 8.68133C2.74008 8.68133 2.63429 8.83468 2.51262 8.94845C2.4227 9.03749 0.941572 10.4918 0.211589 11.214C0.169271 11.2585 0.142823 11.2833 0.105795 11.3179C0.0423179 11.402 0 11.496 0 11.5998C0 11.7087 0.0423179 11.7977 0.105795 11.8818L0.253907 12.0104C0.253907 12.0104 7.6225 18.629 7.74417 18.7428C7.86583 18.8565 8.01395 19 8.23082 19C8.44241 19 8.61697 18.7873 8.71748 18.6933L21.8942 2.8641C21.9577 2.78001 22 2.68602 22 2.57719C22 2.45353 21.9471 2.34965 21.873 2.26061Z" fill="#54D07E"/>
</svg>
