<svg width="114" height="90" viewBox="0 0 114 90" fill="none" xmlns="http://www.w3.org/2000/svg">
<ellipse cx="57" cy="82" rx="57" ry="8" fill="url(#paint0_radial_486_4130)"/>
<g filter="url(#filter0_d_486_4130)">
<path d="M53.9268 70.9547L48.61 64.9469C47.661 63.8745 46.2977 63.2605 44.8657 63.2605H20C17.2386 63.2605 15 61.0219 15 58.2605V11C15 8.23858 17.2386 6 20 6H94C96.7614 6 99 8.23858 99 11V58.2605C99 61.0219 96.7614 63.2605 94 63.2605H70.0776C68.5766 63.2605 67.155 63.9348 66.2054 65.0973L61.5434 70.8043C59.5935 73.1911 55.9694 73.2627 53.9268 70.9547Z" fill="url(#paint1_linear_486_4130)"/>
</g>
<g filter="url(#filter1_d_486_4130)">
<path d="M74.6748 24.2067C65.3651 15.2874 57.3853 30.5778 57.3853 30.5778C57.3853 30.5778 49.4056 15.2874 40.0959 24.2067C32.7041 31.2884 47.9494 44.7961 54.5449 50.0613C56.2227 51.4007 58.548 51.4007 60.2257 50.0613C66.8212 44.7961 82.0665 31.2884 74.6748 24.2067Z" fill="url(#paint2_linear_486_4130)"/>
</g>
<defs>
<filter id="filter0_d_486_4130" x="5" y="0" width="104" height="86.6406" filterUnits="userSpaceOnUse" color-interpolation-filters="sRGB">
<feFlood flood-opacity="0" result="BackgroundImageFix"/>
<feColorMatrix in="SourceAlpha" type="matrix" values="0 0 0 0 0 0 0 0 0 0 0 0 0 0 0 0 0 0 127 0" result="hardAlpha"/>
<feOffset dy="4"/>
<feGaussianBlur stdDeviation="5"/>
<feComposite in2="hardAlpha" operator="out"/>
<feColorMatrix type="matrix" values="0 0 0 0 0.6 0 0 0 0 0.6 0 0 0 0 0.6 0 0 0 0.25 0"/>
<feBlend mode="normal" in2="BackgroundImageFix" result="effect1_dropShadow_486_4130"/>
<feBlend mode="normal" in="SourceGraphic" in2="effect1_dropShadow_486_4130" result="shape"/>
</filter>
<filter id="filter1_d_486_4130" x="28.1193" y="15.4131" width="58.5321" height="49.6523" filterUnits="userSpaceOnUse" color-interpolation-filters="sRGB">
<feFlood flood-opacity="0" result="BackgroundImageFix"/>
<feColorMatrix in="SourceAlpha" type="matrix" values="0 0 0 0 0 0 0 0 0 0 0 0 0 0 0 0 0 0 127 0" result="hardAlpha"/>
<feOffset dy="4"/>
<feGaussianBlur stdDeviation="5"/>
<feComposite in2="hardAlpha" operator="out"/>
<feColorMatrix type="matrix" values="0 0 0 0 0.954167 0 0 0 0 0.810409 0 0 0 0 0.740473 0 0 0 1 0"/>
<feBlend mode="normal" in2="BackgroundImageFix" result="effect1_dropShadow_486_4130"/>
<feBlend mode="normal" in="SourceGraphic" in2="effect1_dropShadow_486_4130" result="shape"/>
</filter>
<radialGradient id="paint0_radial_486_4130" cx="0" cy="0" r="1" gradientUnits="userSpaceOnUse" gradientTransform="translate(57 82) rotate(90) scale(15 106.855)">
<stop stop-color="#FA90D6" stop-opacity="0.4"/>
<stop offset="0.661458" stop-color="#F5D5F2" stop-opacity="0"/>
</radialGradient>
<linearGradient id="paint1_linear_486_4130" x1="30" y1="6" x2="57" y2="75.3578" gradientUnits="userSpaceOnUse">
<stop stop-color="white"/>
<stop offset="1" stop-color="#F2F2F2"/>
</linearGradient>
<linearGradient id="paint2_linear_486_4130" x1="38.0001" y1="10" x2="77.0001" y2="60" gradientUnits="userSpaceOnUse">
<stop offset="0.159164" stop-color="#FF86BF"/>
<stop offset="1" stop-color="#FFE70F"/>
</linearGradient>
</defs>
</svg>
