<svg width="16" height="16" viewBox="0 0 16 16" fill="none" xmlns="http://www.w3.org/2000/svg">
<path d="M7.71468 1.49615C7.80449 1.21976 8.19551 1.21975 8.28532 1.49615L9.59 5.51155C9.76404 6.04718 10.2632 6.40983 10.8264 6.40983H15.0484C15.339 6.40983 15.4599 6.78171 15.2248 6.95253L11.809 9.43419C11.3534 9.76523 11.1628 10.352 11.3368 10.8876L12.6415 14.903C12.7313 15.1794 12.4149 15.4093 12.1798 15.2384L8.76412 12.7568C8.30849 12.4258 7.69151 12.4258 7.23588 12.7568L3.82017 15.2384C3.58506 15.4093 3.26871 15.1794 3.35852 14.903L4.6632 10.8876C4.83724 10.352 4.64658 9.76523 4.19095 9.43419L0.775246 6.95253C0.540132 6.78171 0.660964 6.40983 0.951581 6.40983H5.17363C5.73682 6.40983 6.23596 6.04718 6.41 5.51155L7.71468 1.49615Z" stroke="#3A4178"/>
</svg>
