<svg width="15" height="17" viewBox="0 0 15 17" fill="none" xmlns="http://www.w3.org/2000/svg">
<path d="M11.3001 3.63591V3.27783C11.3001 2.17326 10.4046 1.27783 9.30006 1.27783H3C1.89543 1.27783 1 2.17326 1 3.27783V14.2778C1 15.3824 1.89543 16.2778 3 16.2778H9.30006C10.4046 16.2778 11.3001 15.3824 11.3001 14.2778V13.7232" stroke="#3A4178" stroke-linecap="round"/>
<path d="M6.1875 8.41055C5.96659 8.41055 5.7875 8.58963 5.7875 8.81055C5.7875 9.03146 5.96659 9.21055 6.1875 9.21055V8.41055ZM14.2842 9.09339C14.4404 8.93718 14.4404 8.68391 14.2842 8.5277L11.7386 5.98212C11.5824 5.82591 11.3291 5.82591 11.1729 5.98212C11.0167 6.13833 11.0167 6.3916 11.1729 6.54781L13.4357 8.81055L11.1729 11.0733C11.0167 11.2295 11.0167 11.4828 11.1729 11.639C11.3291 11.7952 11.5824 11.7952 11.7386 11.639L14.2842 9.09339ZM6.1875 9.21055H14.0013V8.41055H6.1875V9.21055Z" fill="#3A4178"/>
</svg>
