<svg width="19" height="17" viewBox="0 0 19 17" fill="none" xmlns="http://www.w3.org/2000/svg">
<path d="M5.67729 13.1831C6.75386 14.2412 8.16854 14.8978 9.68028 15.0411C11.192 15.1844 12.7073 14.8055 13.9679 13.9689C15.2285 13.1324 16.1565 11.8899 16.5937 10.4533C17.0309 9.01666 16.9503 7.47473 16.3656 6.09023C15.7809 4.70573 14.7283 3.56433 13.3871 2.86049C12.046 2.15666 10.4992 1.93395 9.01047 2.23031C7.52172 2.52667 6.18305 3.32376 5.22256 4.48577C4.26207 5.64778 3.73918 7.10281 3.743 8.60294" stroke="#3A4178"/>
<path d="M3.38736 9.15996C3.53518 9.32413 3.7881 9.33739 3.95227 9.18957L6.62759 6.7807C6.79176 6.63288 6.80502 6.37996 6.6572 6.21579C6.50938 6.05162 6.25646 6.03836 6.09229 6.18618L3.71423 8.3274L1.57301 5.94934C1.42519 5.78517 1.17227 5.77191 1.0081 5.91973C0.843926 6.06755 0.830671 6.32047 0.978491 6.48464L3.38736 9.15996ZM3.31149 8.3692L3.28517 8.87138L4.08407 8.91325L4.11039 8.41107L3.31149 8.3692Z" fill="#3A4178"/>
<path d="M10.2148 6.12305V9.73416L12.2148 11.123" stroke="#3A4178" stroke-width="0.8" stroke-linecap="round"/>
</svg>
