<svg width="25" height="26" viewBox="0 0 25 26" fill="none" xmlns="http://www.w3.org/2000/svg">
<path d="M17.0862 12.6925C17.671 10.9347 17.5969 9.02618 16.8774 7.31852C16.158 5.61086 14.8417 4.21922 13.1713 3.4001C11.5009 2.58097 9.58884 2.38958 7.78761 2.86119C5.98639 3.3328 4.41739 4.43563 3.36979 5.96641C2.3222 7.49719 1.86663 9.35274 2.08706 11.1911C2.30748 13.0294 3.18904 14.7265 4.56924 15.9697C5.94945 17.213 7.73527 17.9184 9.59757 17.9561C11.4599 17.9938 13.0628 17.5043 14.4928 16.318" stroke="#3A4178"/>
<path d="M17.0698 12.7749L23.7576 19.2321C23.9138 19.3828 24.002 19.5906 24.002 19.8076V23.7862C24.002 24.2281 23.6438 24.5862 23.202 24.5862H20.8407C20.3989 24.5862 20.0407 24.2281 20.0407 23.7862V22.8784C20.0407 22.417 19.6516 22.0513 19.1911 22.0799L17.7213 22.1712C17.2608 22.1998 16.8717 21.8341 16.8717 21.3727V20.268C16.8717 19.8262 16.5135 19.468 16.0717 19.468H15.1488C14.6872 19.468 14.3214 19.0785 14.3503 18.6178L14.4949 16.3183" stroke="#3A4178" stroke-linecap="round"/>
<path d="M10.2324 8.83729C10.2324 9.75419 9.4837 10.5027 8.55369 10.5027C7.62369 10.5027 6.875 9.75419 6.875 8.83729C6.875 7.92038 7.62369 7.17188 8.55369 7.17188C9.4837 7.17188 10.2324 7.92038 10.2324 8.83729Z" stroke="#3A4178"/>
</svg>
