<?xml version="1.0" encoding="utf-8"?>
<!-- Generator: Adobe Illustrator 24.0.2, SVG Export Plug-In . SVG Version: 6.00 Build 0)  -->
<svg version="1.1" id="Слой_1" xmlns="http://www.w3.org/2000/svg" xmlns:xlink="http://www.w3.org/1999/xlink" x="0px" y="0px"
	 viewBox="0 0 647 66" style="enable-background:new 0 0 647 66;" xml:space="preserve">
<style type="text/css">
	.st0{fill:url(#SVGID_1_);}
	.st1{fill:#7FC6EF;}
	.st2{fill:url(#SVGID_2_);}
	.st3{fill:url(#SVGID_3_);}
	.st4{fill:url(#SVGID_4_);}
	.st5{fill:url(#SVGID_5_);}
	.st6{fill:url(#SVGID_6_);}
	.st7{fill:url(#SVGID_7_);}
	.st8{fill:url(#SVGID_8_);}
	.st9{fill:url(#SVGID_9_);}
	.st10{fill:url(#SVGID_10_);}
	.st11{fill:url(#SVGID_11_);}
	.st12{fill:url(#SVGID_12_);}
	.st13{fill:url(#SVGID_13_);}
	.st14{fill:url(#SVGID_14_);}
</style>
<g>
	<linearGradient id="SVGID_1_" gradientUnits="userSpaceOnUse" x1="284.2729" y1="28.5839" x2="284.2729" y2="62.1754">
		<stop  offset="0" style="stop-color:#FFFFFF"/>
		<stop  offset="0.2275" style="stop-color:#FCFEFF"/>
		<stop  offset="0.4005" style="stop-color:#F2F9FD"/>
		<stop  offset="0.5555" style="stop-color:#E2F2FB"/>
		<stop  offset="0.6999" style="stop-color:#CBE8F9"/>
		<stop  offset="0.8371" style="stop-color:#ADDBF5"/>
		<stop  offset="0.9671" style="stop-color:#89CBF0"/>
		<stop  offset="1" style="stop-color:#7FC6EF"/>
	</linearGradient>
	<path class="st0" d="M275.7,58.5c-2.6-1.4-4.6-3.3-6-5.7c-1.4-2.4-2.2-5.1-2.2-8.1c0-3,0.7-5.7,2.2-8.1c1.4-2.4,3.4-4.3,6-5.7
		c2.6-1.4,5.4-2.1,8.6-2.1c3.2,0,6.1,0.7,8.6,2.1c2.5,1.4,4.5,3.3,6,5.7c1.5,2.4,2.2,5.1,2.2,8.1c0,3-0.7,5.7-2.2,8.1
		c-1.5,2.4-3.5,4.3-6,5.7c-2.5,1.4-5.4,2.1-8.6,2.1C281.1,60.5,278.2,59.8,275.7,58.5z M289.2,53.2c1.5-0.8,2.6-2,3.4-3.5
		c0.8-1.5,1.2-3.2,1.2-5.1s-0.4-3.6-1.2-5.1c-0.8-1.5-2-2.7-3.4-3.5c-1.5-0.8-3.1-1.2-4.9-1.2s-3.5,0.4-4.9,1.2
		c-1.5,0.8-2.6,2-3.4,3.5c-0.8,1.5-1.2,3.2-1.2,5.1s0.4,3.6,1.2,5.1c0.8,1.5,2,2.7,3.4,3.5c1.5,0.8,3.1,1.3,4.9,1.3
		S287.7,54.1,289.2,53.2z"/>
	<path class="st1" d="M412.9,55.3c-4.2-2.3-7.5-5.4-9.8-9.3c-2.4-4-3.6-8.4-3.6-13.3s1.2-9.4,3.6-13.3c2.4-4,5.7-7.1,9.8-9.3
		c4.2-2.3,8.9-3.4,14.1-3.4c5.2,0,9.9,1.1,14.1,3.4c4.2,2.3,7.4,5.4,9.8,9.3c2.4,4,3.6,8.4,3.6,13.3s-1.2,9.4-3.6,13.3
		c-2.4,4-5.7,7.1-9.8,9.3c-4.2,2.3-8.9,3.4-14.1,3.4C421.8,58.7,417.1,57.6,412.9,55.3z M435.1,46.7c2.4-1.4,4.3-3.3,5.6-5.7
		c1.4-2.4,2-5.2,2-8.3s-0.7-5.9-2-8.3c-1.4-2.4-3.2-4.3-5.6-5.7c-2.4-1.4-5.1-2-8-2s-5.7,0.7-8,2c-2.4,1.4-4.3,3.3-5.6,5.7
		c-1.4,2.4-2,5.2-2,8.3s0.7,5.9,2,8.3c1.4,2.4,3.2,4.3,5.6,5.7c2.4,1.4,5.1,2,8,2S432.7,48.1,435.1,46.7z"/>
	<linearGradient id="SVGID_2_" gradientUnits="userSpaceOnUse" x1="520.6116" y1="52.1953" x2="520.6116" y2="60.7026">
		<stop  offset="0" style="stop-color:#FFFFFF"/>
		<stop  offset="1" style="stop-color:#7FC6EF"/>
	</linearGradient>
	<path class="st2" d="M517.6,59.1c-0.8-0.8-1.2-1.8-1.2-3.1c0-1.3,0.4-2.3,1.2-3c0.8-0.8,1.8-1.2,3-1.2c1.2,0,2.2,0.4,3,1.2
		c0.8,0.8,1.2,1.8,1.2,3c0,1.2-0.4,2.3-1.2,3.1c-0.8,0.8-1.8,1.2-3,1.2C519.4,60.3,518.4,59.9,517.6,59.1z"/>
	<linearGradient id="SVGID_3_" gradientUnits="userSpaceOnUse" x1="584.4706" y1="27.8161" x2="584.4706" y2="61.4076">
		<stop  offset="0" style="stop-color:#FFFFFF"/>
		<stop  offset="0.2646" style="stop-color:#FCFEFF"/>
		<stop  offset="0.4357" style="stop-color:#F4FAFE"/>
		<stop  offset="0.5803" style="stop-color:#E5F3FC"/>
		<stop  offset="0.7101" style="stop-color:#D0EAF9"/>
		<stop  offset="0.8301" style="stop-color:#B5DEF6"/>
		<stop  offset="0.9413" style="stop-color:#94CFF2"/>
		<stop  offset="1" style="stop-color:#7FC6EF"/>
	</linearGradient>
	<path class="st3" d="M575.9,58.5c-2.6-1.4-4.6-3.3-6-5.7c-1.4-2.4-2.2-5.1-2.2-8.1c0-3,0.7-5.7,2.2-8.1c1.4-2.4,3.4-4.3,6-5.7
		c2.6-1.4,5.4-2.1,8.6-2.1c3.2,0,6.1,0.7,8.6,2.1c2.5,1.4,4.5,3.3,6,5.7c1.5,2.4,2.2,5.1,2.2,8.1c0,3-0.7,5.7-2.2,8.1
		c-1.5,2.4-3.5,4.3-6,5.7c-2.5,1.4-5.4,2.1-8.6,2.1C581.3,60.5,578.4,59.8,575.9,58.5z M589.4,53.2c1.5-0.8,2.6-2,3.4-3.5
		c0.8-1.5,1.2-3.2,1.2-5.1s-0.4-3.6-1.2-5.1c-0.8-1.5-2-2.7-3.4-3.5c-1.5-0.8-3.1-1.2-4.9-1.2c-1.8,0-3.5,0.4-4.9,1.2
		c-1.5,0.8-2.6,2-3.4,3.5c-0.8,1.5-1.2,3.2-1.2,5.1s0.4,3.6,1.2,5.1c0.8,1.5,2,2.7,3.4,3.5c1.5,0.8,3.1,1.3,4.9,1.3
		C586.3,54.5,587.9,54.1,589.4,53.2z"/>
	<linearGradient id="SVGID_4_" gradientUnits="userSpaceOnUse" x1="76.2477" y1="28.0308" x2="76.2477" y2="63.8004">
		<stop  offset="0" style="stop-color:#FFFFFF"/>
		<stop  offset="0.2015" style="stop-color:#FCFDFF"/>
		<stop  offset="0.376" style="stop-color:#F1F9FD"/>
		<stop  offset="0.5404" style="stop-color:#DFF1FB"/>
		<stop  offset="0.6988" style="stop-color:#C6E6F8"/>
		<stop  offset="0.8511" style="stop-color:#A6D7F4"/>
		<stop  offset="1" style="stop-color:#7FC6EF"/>
	</linearGradient>
	<path class="st4" d="M91.5,55.4L79.8,29.3h-7L61.2,55.4h-2.8l6.2,7.7l6.2-7.7h-2.6l0.8-2h14.3l0.8,2h-2.6l6.2,7.7l6.2-7.7H91.5z
		 M71.4,48l4.9-11.8L81.2,48H71.4z"/>
	<linearGradient id="SVGID_5_" gradientUnits="userSpaceOnUse" x1="111.8707" y1="29.655" x2="111.8707" y2="62.7537">
		<stop  offset="0" style="stop-color:#FFFFFF"/>
		<stop  offset="0.2046" style="stop-color:#FCFDFF"/>
		<stop  offset="0.3789" style="stop-color:#F1F9FD"/>
		<stop  offset="0.542" style="stop-color:#E0F1FB"/>
		<stop  offset="0.6984" style="stop-color:#C7E6F8"/>
		<stop  offset="0.8492" style="stop-color:#A7D8F4"/>
		<stop  offset="0.9953" style="stop-color:#80C7EF"/>
		<stop  offset="1" style="stop-color:#7FC6EF"/>
	</linearGradient>
	<path class="st5" d="M120.2,50.1c2-0.9,3.6-2.1,4.7-3.8c1.1-1.7,1.6-3.6,1.6-5.9c0-2.3-0.5-4.3-1.6-5.9c-1.1-1.7-2.6-3-4.6-3.9
		s-4.4-1.4-7.1-1.4H99.9v26.1h-2.6l6.2,7.7l6.2-7.7H107v-4h6.2h0.4l2.8,4h-2.8l6.2,7.7l6.2-7.7h-2.1L120.2,50.1z M112.8,45.8H107
		V35.1h5.8c2.1,0,3.8,0.5,4.9,1.4c1.1,0.9,1.7,2.2,1.7,4c0,1.7-0.6,3-1.7,3.9C116.5,45.3,114.9,45.8,112.8,45.8z"/>
	<linearGradient id="SVGID_6_" gradientUnits="userSpaceOnUse" x1="249.3173" y1="30.9838" x2="249.3173" y2="63.2418">
		<stop  offset="0" style="stop-color:#FFFFFF"/>
		<stop  offset="0.1909" style="stop-color:#FBFDFF"/>
		<stop  offset="0.3662" style="stop-color:#F0F8FD"/>
		<stop  offset="0.5355" style="stop-color:#DEF0FB"/>
		<stop  offset="0.701" style="stop-color:#C3E4F8"/>
		<stop  offset="0.8622" style="stop-color:#A2D6F3"/>
		<stop  offset="1" style="stop-color:#7FC6EF"/>
	</linearGradient>
	<path class="st6" d="M261.2,55.4l-3.7-5.3c2-0.9,3.6-2.1,4.7-3.8c1.1-1.7,1.6-3.6,1.6-5.9c0-2.3-0.5-4.3-1.6-5.9
		c-1.1-1.7-2.6-3-4.6-3.9s-4.4-1.4-7.1-1.4h-13.3v26.1h-2.5l6.2,7.7l6.2-7.7h-2.9v-4h6.2h0.4l2.8,4h-2.1l6.2,7.7l6.2-7.7H261.2z
		 M250.1,45.8h-5.8V35.1h5.8c2.1,0,3.8,0.5,4.9,1.4c1.1,0.9,1.7,2.2,1.7,4c0,1.7-0.6,3-1.7,3.9S252.2,45.8,250.1,45.8z"/>
	<linearGradient id="SVGID_7_" gradientUnits="userSpaceOnUse" x1="323.6861" y1="30.9838" x2="323.6861" y2="62.7172">
		<stop  offset="0" style="stop-color:#FFFFFF"/>
		<stop  offset="0.195" style="stop-color:#FBFDFF"/>
		<stop  offset="0.3699" style="stop-color:#F1F9FD"/>
		<stop  offset="0.5372" style="stop-color:#DEF0FB"/>
		<stop  offset="0.6997" style="stop-color:#C4E5F8"/>
		<stop  offset="0.8574" style="stop-color:#A4D6F4"/>
		<stop  offset="1" style="stop-color:#7FC6EF"/>
	</linearGradient>
	<polygon class="st7" points="341,55.4 340.9,29.3 335.1,29.3 323.8,48.4 312.3,29.3 306.4,29.3 306.4,55.4 303.4,55.4 309.7,63.1 
		315.9,55.4 313.1,55.4 313.1,42 322.1,56.8 325.3,56.8 334.3,41.6 334.3,55.4 331.4,55.4 337.7,63.1 343.9,55.4 	"/>
	<linearGradient id="SVGID_8_" gradientUnits="userSpaceOnUse" x1="623.9664" y1="29.9207" x2="623.9664" y2="63.256">
		<stop  offset="0" style="stop-color:#FFFFFF"/>
		<stop  offset="0.1945" style="stop-color:#FBFDFF"/>
		<stop  offset="0.3695" style="stop-color:#F0F9FD"/>
		<stop  offset="0.537" style="stop-color:#DEF0FB"/>
		<stop  offset="0.6999" style="stop-color:#C4E5F8"/>
		<stop  offset="0.8578" style="stop-color:#A3D6F4"/>
		<stop  offset="1" style="stop-color:#7FC6EF"/>
	</linearGradient>
	<polygon class="st8" points="641.2,55.4 641.1,29.3 635.3,29.3 624,48.4 612.5,29.3 606.6,29.3 606.6,55.4 603.7,55.4 609.9,63.1 
		616.2,55.4 613.3,55.4 613.3,42 622.3,56.8 625.5,56.8 634.5,41.6 634.5,55.4 631.8,55.4 638,63.1 644.3,55.4 	"/>
	<polygon class="st1" points="380.4,40 395.7,14.6 400.5,14.6 390.2,2 380,14.6 384.2,14.6 375.1,29.9 365.9,14.6 370,14.6 359.8,2 
		349.5,14.6 353.6,14.6 368.7,39.9 368.7,50.3 364.4,50.3 374.6,63 384.8,50.3 380.4,50.3 	"/>
	<linearGradient id="SVGID_9_" gradientUnits="userSpaceOnUse" x1="550.8903" y1="27.1181" x2="550.8903" y2="61.8971">
		<stop  offset="0" style="stop-color:#FFFFFF"/>
		<stop  offset="0.2513" style="stop-color:#FCFEFF"/>
		<stop  offset="0.4231" style="stop-color:#F3FAFE"/>
		<stop  offset="0.5711" style="stop-color:#E4F3FC"/>
		<stop  offset="0.7057" style="stop-color:#CEE9F9"/>
		<stop  offset="0.8312" style="stop-color:#B2DDF5"/>
		<stop  offset="0.9483" style="stop-color:#90CEF1"/>
		<stop  offset="1" style="stop-color:#7FC6EF"/>
	</linearGradient>
	<path class="st9" d="M557.4,53.5c-1.1,0.6-2.3,1-4.1,1c-1.9,0-3.6-0.4-5.1-1.3c-1.5-0.8-2.7-2-3.5-3.5c-0.8-1.5-1.2-3.2-1.2-5.1
		s0.4-3.6,1.2-5.1c0.8-1.5,2-2.7,3.5-3.5c1.5-0.8,3.2-1.2,5.1-1.2c2,0,3.1,0.4,4.2,0.9l-0.6,3l8.8-4.5l-6.2-7.7l-0.7,3.1
		c-1.8-0.6-3.7-0.9-5.8-0.9c-3.2,0-6,0.7-8.5,2c-2.5,1.4-4.5,3.2-6,5.7c-1.4,2.4-2.2,5.1-2.2,8.2c0,3,0.7,5.8,2.2,8.2
		c1.4,2.4,3.4,4.3,6,5.7c2.5,1.4,5.4,2,8.5,2c2.1,0,4-0.3,5.8-0.9l0.7,3.3l6.2-7.7l-8.8-4.5L557.4,53.5z"/>
	<path class="st1" d="M513.2,14.6L502.9,2l-10.2,12.6h4.3v20.6c0,4.6-1,8.1-2.9,10.2c-1.9,2.2-4.7,3.3-8.3,3.3
		c-7.5,0-11.2-4.5-11.2-13.5V14.6h4.5L468.8,2l-10.2,12.6h4.3v21.1c0,7.4,2,13.1,6,17c4,4,9.6,6,16.8,6c7.2,0,12.8-2,16.8-6
		c4-4,6-9.7,6-17V14.6H513.2z"/>
	<linearGradient id="SVGID_10_" gradientUnits="userSpaceOnUse" x1="44.1449" y1="28.0003" x2="44.1449" y2="62.2386">
		<stop  offset="0" style="stop-color:#FFFFFF"/>
		<stop  offset="0.2349" style="stop-color:#FCFEFF"/>
		<stop  offset="0.4076" style="stop-color:#F3F9FD"/>
		<stop  offset="0.5603" style="stop-color:#E3F2FB"/>
		<stop  offset="0.7015" style="stop-color:#CCE8F9"/>
		<stop  offset="0.8347" style="stop-color:#AFDBF5"/>
		<stop  offset="0.9604" style="stop-color:#8CCCF1"/>
		<stop  offset="1" style="stop-color:#7FC6EF"/>
	</linearGradient>
	<polygon class="st10" points="61.3,32.2 53.6,25.9 53.6,29.3 34.7,29.3 34.7,25.9 27,32.2 34.7,38.4 34.7,35.1 40.7,35.1 
		40.7,55.4 37.9,55.4 44.1,63.1 50.4,55.4 47.8,55.4 47.8,35.1 53.6,35.1 53.6,38.4 	"/>
	<linearGradient id="SVGID_11_" gradientUnits="userSpaceOnUse" x1="218.987" y1="27.3506" x2="218.987" y2="62.715">
		<stop  offset="0" style="stop-color:#FFFFFF"/>
		<stop  offset="0.2276" style="stop-color:#FCFEFF"/>
		<stop  offset="0.4006" style="stop-color:#F2F9FD"/>
		<stop  offset="0.5556" style="stop-color:#E2F2FB"/>
		<stop  offset="0.7" style="stop-color:#CBE8F9"/>
		<stop  offset="0.837" style="stop-color:#ADDBF5"/>
		<stop  offset="0.9669" style="stop-color:#89CBF0"/>
		<stop  offset="1" style="stop-color:#7FC6EF"/>
	</linearGradient>
	<polygon class="st11" points="223.8,43.1 213.8,43.1 213.8,35 226,35 226,38.4 233.8,32.2 226,25.9 226,29.3 206.7,29.3 
		206.7,55.4 204.2,55.4 210.5,63.1 216.7,55.4 213.8,55.4 213.8,48.8 223.8,48.8 223.8,52.2 231.5,45.9 223.8,39.7 	"/>
	<linearGradient id="SVGID_12_" gradientUnits="userSpaceOnUse" x1="144.3747" y1="28.0594" x2="144.3747" y2="62.2977">
		<stop  offset="0" style="stop-color:#FFFFFF"/>
		<stop  offset="0.2371" style="stop-color:#FCFEFF"/>
		<stop  offset="0.4096" style="stop-color:#F3FAFD"/>
		<stop  offset="0.5616" style="stop-color:#E3F2FB"/>
		<stop  offset="0.7019" style="stop-color:#CCE8F9"/>
		<stop  offset="0.8341" style="stop-color:#AFDCF5"/>
		<stop  offset="0.9585" style="stop-color:#8CCCF1"/>
		<stop  offset="1" style="stop-color:#7FC6EF"/>
	</linearGradient>
	<polygon class="st12" points="161.5,32.2 153.8,25.9 153.8,29.3 135,29.3 135,25.9 127.3,32.2 135,38.4 135,35.1 140.8,35.1 
		140.8,55.4 138.1,55.4 144.4,63.1 150.6,55.4 147.9,55.4 147.9,35.1 153.8,35.1 153.8,38.4 	"/>
	<linearGradient id="SVGID_13_" gradientUnits="userSpaceOnUse" x1="14.7745" y1="27.6688" x2="14.7745" y2="62.0006">
		<stop  offset="0" style="stop-color:#FFFFFF"/>
		<stop  offset="0.2492" style="stop-color:#FCFEFF"/>
		<stop  offset="0.421" style="stop-color:#F3FAFE"/>
		<stop  offset="0.5697" style="stop-color:#E4F3FC"/>
		<stop  offset="0.7051" style="stop-color:#CEE9F9"/>
		<stop  offset="0.8316" style="stop-color:#B2DDF5"/>
		<stop  offset="0.9498" style="stop-color:#90CEF1"/>
		<stop  offset="1" style="stop-color:#7FC6EF"/>
	</linearGradient>
	<path class="st13" d="M25.6,46.1c-1.1-1.2-2.3-2.1-3.8-2.6c-1.5-0.6-3.4-1.1-5.7-1.7c-2.3-0.5-3.9-1-5-1.5C9.9,39.8,9.4,39,9.4,38
		c0-1.1,0.5-1.9,1.4-2.5c0.9-0.6,2.4-1,4.4-1c0.7,0,1.2,0,1.7,0.1L16,38l9.1-4.1l-5.9-8L18.4,29c-1-0.1-2.1-0.2-3.1-0.2
		c-2.8,0-5.2,0.4-7.1,1.3c-1.9,0.8-3.4,2-4.4,3.4c-1,1.4-1.4,3.1-1.4,4.8c0,2,0.5,3.7,1.6,4.9c1.1,1.2,2.3,2.1,3.8,2.7
		c1.5,0.6,3.4,1.1,5.7,1.7c1.5,0.4,2.7,0.7,3.6,1c0.9,0.3,1.6,0.7,2.2,1.2c0.6,0.5,0.9,1.1,0.9,1.8c0,1-0.5,1.8-1.4,2.4
		s-2.5,0.9-4.5,0.9c-1.1,0-2.2-0.1-3.3-0.3l1.1-3.2l-9.4,3.3l5.1,8.5L9,60c1.7,0.4,3.5,0.5,5.2,0.5c2.8,0,5.2-0.4,7.1-1.3
		c2-0.8,3.4-2,4.4-3.4c1-1.4,1.5-3,1.5-4.8C27.2,49,26.7,47.3,25.6,46.1z"/>
	<linearGradient id="SVGID_14_" gradientUnits="userSpaceOnUse" x1="175.3352" y1="27.6688" x2="175.3352" y2="62.354">
		<stop  offset="0" style="stop-color:#FFFFFF"/>
		<stop  offset="0.2345" style="stop-color:#FCFEFF"/>
		<stop  offset="0.4072" style="stop-color:#F3F9FD"/>
		<stop  offset="0.56" style="stop-color:#E3F2FB"/>
		<stop  offset="0.7014" style="stop-color:#CCE8F9"/>
		<stop  offset="0.8348" style="stop-color:#AFDBF5"/>
		<stop  offset="0.9607" style="stop-color:#8CCCF1"/>
		<stop  offset="1" style="stop-color:#7FC6EF"/>
	</linearGradient>
	<path class="st14" d="M186.2,46.1c-1.1-1.2-2.3-2.1-3.8-2.6c-1.5-0.6-3.4-1.1-5.7-1.7c-2.3-0.5-3.9-1-5-1.5
		c-1.1-0.5-1.6-1.3-1.6-2.3c0-1.1,0.5-1.9,1.4-2.5c0.9-0.6,2.4-0.9,4.4-1c0.6,0,1.1,0,1.7,0.2l-0.9,3.4l9.1-4.1l-5.9-8L179,29
		c-1-0.1-2.1-0.2-3.2-0.2c-2.8,0-5.2,0.4-7.1,1.3c-1.9,0.8-3.4,2-4.4,3.4c-1,1.4-1.4,3.1-1.4,4.8c0,2,0.5,3.7,1.6,4.9
		c1.1,1.2,2.3,2.1,3.8,2.7c1.5,0.6,3.4,1.1,5.7,1.7c1.5,0.4,2.7,0.7,3.6,1c0.9,0.3,1.6,0.7,2.2,1.2c0.6,0.5,0.9,1.1,0.9,1.8
		c0,1-0.5,1.8-1.4,2.4c-1,0.6-2.5,0.9-4.5,0.9c-1.1,0-2.2-0.1-3.3-0.3l1.1-3.2l-9.4,3.3l5.1,8.5l1.1-3.1c1.7,0.4,3.4,0.5,5.2,0.5
		c2.8,0,5.2-0.4,7.1-1.3c2-0.8,3.4-2,4.4-3.4c1-1.4,1.5-3,1.5-4.8C187.8,49,187.3,47.3,186.2,46.1z"/>
</g>
</svg>
