<svg width="29" height="27" viewBox="0 0 29 27" fill="none" xmlns="http://www.w3.org/2000/svg">
<path d="M28.616 1.736L27.896 6.72799C26.424 6.6 25.256 6.856 24.392 7.496C23.528 8.104 22.936 8.984 22.616 10.136C22.328 11.256 22.28 12.536 22.472 13.976H28.616V26.312H16.76V13.496C16.76 9.304 17.752 6.136 19.736 3.992C21.72 1.816 24.68 1.064 28.616 1.736ZM12.536 1.736L11.816 6.72799C10.344 6.6 9.176 6.856 8.312 7.496C7.448 8.104 6.856 8.984 6.536 10.136C6.248 11.256 6.2 12.536 6.392 13.976H12.536V26.312H0.680001V13.496C0.680001 9.304 1.672 6.136 3.656 3.992C5.64 1.816 8.6 1.064 12.536 1.736Z" fill="#7785F8"/>
</svg>
