<svg width="29" height="27" viewBox="0 0 29 27" fill="none" xmlns="http://www.w3.org/2000/svg">
<path d="M0.384001 25.264L1.104 20.272C2.576 20.4 3.744 20.144 4.608 19.504C5.472 18.896 6.064 18.016 6.384 16.864C6.672 15.744 6.72 14.464 6.528 13.024L0.384002 13.024L0.384003 0.687999L12.24 0.688L12.24 13.504C12.24 17.696 11.248 20.864 9.264 23.008C7.28 25.184 4.32 25.936 0.384001 25.264ZM16.464 25.264L17.184 20.272C18.656 20.4 19.824 20.144 20.688 19.504C21.552 18.896 22.144 18.016 22.464 16.864C22.752 15.744 22.8 14.464 22.608 13.024L16.464 13.024L16.464 0.688001L28.32 0.688002L28.32 13.504C28.32 17.696 27.328 20.864 25.344 23.008C23.36 25.184 20.4 25.936 16.464 25.264Z" fill="#7785F8"/>
</svg>
