<svg width="23" height="21" viewBox="0 0 23 21" fill="none" xmlns="http://www.w3.org/2000/svg">
<path d="M11.1247 0.463526C11.2743 0.0028702 11.926 0.00286984 12.0757 0.463525L14.2719 7.2227C14.3388 7.42871 14.5308 7.56819 14.7474 7.56819H21.8545C22.3388 7.56819 22.5402 8.188 22.1483 8.4727L16.3987 12.6501C16.2234 12.7774 16.1501 13.0031 16.217 13.2091L18.4132 19.9683C18.5629 20.4289 18.0356 20.812 17.6438 20.5273L11.8941 16.3499C11.7188 16.2226 11.4815 16.2226 11.3063 16.3499L5.55661 20.5273C5.16475 20.812 4.63751 20.4289 4.78719 19.9683L6.98337 13.2091C7.05031 13.0031 6.97698 12.7774 6.80174 12.6501L1.05204 8.4727C0.660187 8.188 0.861575 7.56819 1.34594 7.56819H8.45295C8.66956 7.56819 8.86154 7.42871 8.92848 7.2227L11.1247 0.463526Z" fill="#C0C0C0"/>
<path d="M11.1247 0.463526C11.2743 0.0028702 11.926 0.00286984 12.0757 0.463525L14.2719 7.2227C14.3388 7.42871 14.5308 7.56819 14.7474 7.56819H21.8545C22.3388 7.56819 22.5402 8.188 22.1483 8.4727L16.3987 12.6501C16.2234 12.7774 16.1501 13.0031 16.217 13.2091L18.4132 19.9683C18.5629 20.4289 18.0356 20.812 17.6438 20.5273L11.8941 16.3499C11.7188 16.2226 11.4815 16.2226 11.3063 16.3499L5.55661 20.5273C5.16475 20.812 4.63751 20.4289 4.78719 19.9683L6.98337 13.2091C7.05031 13.0031 6.97698 12.7774 6.80174 12.6501L1.05204 8.4727C0.660187 8.188 0.861575 7.56819 1.34594 7.56819H8.45295C8.66956 7.56819 8.86154 7.42871 8.92848 7.2227L11.1247 0.463526Z" stroke="#3A4178"/>
</svg>
