<svg width="25" height="23" viewBox="0 0 25 23" fill="none" xmlns="http://www.w3.org/2000/svg">
<path d="M11.8292 0.427336C11.9809 -0.0290332 12.6265 -0.029032 12.7782 0.427338L15.2908 7.98599C15.3587 8.19036 15.5499 8.32827 15.7653 8.32827H23.8716C24.3587 8.32827 24.5583 8.95389 24.1611 9.23593L17.6227 13.8792C17.4435 14.0065 17.3684 14.236 17.4378 14.4446L19.9398 21.9714C20.0923 22.4301 19.5699 22.8167 19.1758 22.5368L12.5932 17.8621C12.4198 17.739 12.1876 17.739 12.0142 17.8621L5.43158 22.5368C5.03751 22.8167 4.51514 22.4301 4.6676 21.9714L7.16966 14.4446C7.23901 14.236 7.16394 14.0065 6.98469 13.8792L0.446289 9.23593C0.0491295 8.95389 0.248672 8.32827 0.735792 8.32827H8.84214C9.0575 8.32827 9.24867 8.19036 9.31661 7.98599L11.8292 0.427336Z" fill="#FFD84F"/>
</svg>
