<svg width="37" height="36" viewBox="0 0 37 36" fill="none" xmlns="http://www.w3.org/2000/svg">
<g filter="url(#filter0_d_221_2486)">
<path d="M17.8806 6.54946C18.0303 6.08881 18.682 6.08881 18.8317 6.54946L20.4313 11.4726C20.4982 11.6786 20.6902 11.8181 20.9068 11.8181L26.0833 11.8181C26.5677 11.8181 26.7691 12.4379 26.3772 12.7226L22.1893 15.7653C22.0141 15.8926 21.9408 16.1183 22.0077 16.3243L23.6073 21.2474C23.757 21.7081 23.2298 22.0911 22.8379 21.8064L18.65 18.7638C18.4748 18.6364 18.2375 18.6364 18.0622 18.7638L13.8744 21.8064C13.4825 22.0911 12.9553 21.7081 13.105 21.2474L14.7046 16.3243C14.7715 16.1183 14.6982 15.8926 14.5229 15.7653L10.3351 12.7226C9.94322 12.4379 10.1446 11.8181 10.629 11.8181L15.8055 11.8181C16.0221 11.8181 16.2141 11.6786 16.281 11.4726L17.8806 6.54946Z" fill="#FFC34F"/>
<path d="M18.1184 6.62672C18.1932 6.39639 18.5191 6.39639 18.5939 6.62672L20.1935 11.5498C20.2939 11.8589 20.5819 12.0681 20.9068 12.0681L26.0833 12.0681C26.3255 12.0681 26.4262 12.378 26.2303 12.5203L22.0424 15.563C21.7795 15.754 21.6695 16.0925 21.7699 16.4015L23.3696 21.3247C23.4444 21.555 23.1808 21.7465 22.9848 21.6042L18.797 18.5615C18.5341 18.3705 18.1782 18.3705 17.9153 18.5615L13.7274 21.6042C13.5315 21.7465 13.2679 21.555 13.3427 21.3247L14.9423 16.4015C15.0428 16.0925 14.9328 15.754 14.6699 15.563L10.482 12.5203C10.2861 12.378 10.3868 12.0681 10.629 12.0681L15.8055 12.0681C16.1304 12.0681 16.4183 11.8589 16.5188 11.5498L18.1184 6.62672Z" stroke="white" stroke-width="0.5"/>
</g>
<defs>
<filter id="filter0_d_221_2486" x="0.128906" y="0.204102" width="36.457" height="35.7002" filterUnits="userSpaceOnUse" color-interpolation-filters="sRGB">
<feFlood flood-opacity="0" result="BackgroundImageFix"/>
<feColorMatrix in="SourceAlpha" type="matrix" values="0 0 0 0 0 0 0 0 0 0 0 0 0 0 0 0 0 0 127 0" result="hardAlpha"/>
<feOffset dy="4"/>
<feGaussianBlur stdDeviation="5"/>
<feComposite in2="hardAlpha" operator="out"/>
<feColorMatrix type="matrix" values="0 0 0 0 0 0 0 0 0 0 0 0 0 0 0 0 0 0 0.25 0"/>
<feBlend mode="normal" in2="BackgroundImageFix" result="effect1_dropShadow_221_2486"/>
<feBlend mode="normal" in="SourceGraphic" in2="effect1_dropShadow_221_2486" result="shape"/>
</filter>
</defs>
</svg>
