<svg width="168" height="168" viewBox="0 0 168 168" fill="none" xmlns="http://www.w3.org/2000/svg">
<g filter="url(#filter0_di_139_5271)">
<circle cx="84" cy="74" r="54" fill="url(#paint0_linear_139_5271)"/>
<circle cx="84" cy="74" r="53" stroke="white" stroke-width="2"/>
</g>
<path d="M85.4142 66.5858C84.6332 65.8047 83.3668 65.8047 82.5858 66.5858L69.8579 79.3137C69.0768 80.0948 69.0768 81.3611 69.8579 82.1421C70.6389 82.9232 71.9052 82.9232 72.6863 82.1421L84 70.8284L95.3137 82.1421C96.0948 82.9232 97.3611 82.9232 98.1421 82.1421C98.9232 81.3611 98.9232 80.0948 98.1421 79.3137L85.4142 66.5858ZM86 69.5V68H82V69.5H86Z" fill="#3A4178"/>
<defs>
<filter id="filter0_di_139_5271" x="0" y="0" width="168" height="168" filterUnits="userSpaceOnUse" color-interpolation-filters="sRGB">
<feFlood flood-opacity="0" result="BackgroundImageFix"/>
<feColorMatrix in="SourceAlpha" type="matrix" values="0 0 0 0 0 0 0 0 0 0 0 0 0 0 0 0 0 0 127 0" result="hardAlpha"/>
<feOffset dy="10"/>
<feGaussianBlur stdDeviation="15"/>
<feComposite in2="hardAlpha" operator="out"/>
<feColorMatrix type="matrix" values="0 0 0 0 0.816667 0 0 0 0 0.806458 0 0 0 0 0.806458 0 0 0 0.69 0"/>
<feBlend mode="normal" in2="BackgroundImageFix" result="effect1_dropShadow_139_5271"/>
<feBlend mode="normal" in="SourceGraphic" in2="effect1_dropShadow_139_5271" result="shape"/>
<feColorMatrix in="SourceAlpha" type="matrix" values="0 0 0 0 0 0 0 0 0 0 0 0 0 0 0 0 0 0 127 0" result="hardAlpha"/>
<feOffset dy="4"/>
<feGaussianBlur stdDeviation="5"/>
<feComposite in2="hardAlpha" operator="arithmetic" k2="-1" k3="1"/>
<feColorMatrix type="matrix" values="0 0 0 0 0.316667 0 0 0 0 0.316667 0 0 0 0 0.316667 0 0 0 0.25 0"/>
<feBlend mode="normal" in2="shape" result="effect2_innerShadow_139_5271"/>
</filter>
<linearGradient id="paint0_linear_139_5271" x1="42.5" y1="20" x2="130.5" y2="160" gradientUnits="userSpaceOnUse">
<stop stop-color="white"/>
<stop offset="1" stop-color="#E0E0E0"/>
</linearGradient>
</defs>
</svg>
